<svg xmlns="http://www.w3.org/2000/svg" viewBox="0 0 39.55 39.55"><defs><style>.cls-1{fill:#fff;}</style></defs><g id="Ebene_2" data-name="Ebene 2"><g id="Ebene_1-2" data-name="Ebene 1"><rect width="39.55" height="39.55"/><path class="cls-1" d="M11.72,9.19v1.59H7V9.19ZM8.08,16.82V8.64a2.61,2.61,0,0,1,.33-1.38,2.07,2.07,0,0,1,.89-.82,3,3,0,0,1,1.29-.27,4.94,4.94,0,0,1,.89.07c.27,0,.47.09.61.13L11.71,8a2,2,0,0,0-.31-.08,2.22,2.22,0,0,0-.37,0,.83.83,0,0,0-.65.21.94.94,0,0,0-.18.61v8.14Z"/><path class="cls-1" d="M15.45,17a4,4,0,0,1-2-.48,3.24,3.24,0,0,1-1.31-1.36A4.54,4.54,0,0,1,11.67,13,4.57,4.57,0,0,1,12.12,11a3.44,3.44,0,0,1,1.29-1.38,3.69,3.69,0,0,1,2-.5,4.09,4.09,0,0,1,1.41.24,3.08,3.08,0,0,1,1.14.72,3.49,3.49,0,0,1,.77,1.21A5,5,0,0,1,19,13v.58H12.51V12.24H17a1.62,1.62,0,0,0-.2-.81,1.55,1.55,0,0,0-.55-.56,1.69,1.69,0,0,0-.82-.2,1.61,1.61,0,0,0-.85.22,1.61,1.61,0,0,0-.79,1.42v1.24a2.12,2.12,0,0,0,.21,1,1.49,1.49,0,0,0,.6.64,1.79,1.79,0,0,0,.92.22,2,2,0,0,0,.65-.1,1.32,1.32,0,0,0,.5-.29,1.49,1.49,0,0,0,.32-.49l1.95.13a2.63,2.63,0,0,1-.6,1.23,3.07,3.07,0,0,1-1.19.81A4.33,4.33,0,0,1,15.45,17Z"/><path class="cls-1" d="M20.71,8.2a1.16,1.16,0,0,1-.81-.31,1,1,0,0,1,0-1.51,1.15,1.15,0,0,1,.81-.32,1.2,1.2,0,0,1,.81.31,1,1,0,0,1,0,1.52A1.16,1.16,0,0,1,20.71,8.2Zm-1.07,8.62V9.19h2.12v7.63Z"/><path class="cls-1" d="M11.05,31.8a4.89,4.89,0,0,1-1.76-.28,3.11,3.11,0,0,1-1.17-.75,2.45,2.45,0,0,1-.56-1.05l2-.26a1.13,1.13,0,0,0,.28.39,1.38,1.38,0,0,0,.52.31,2.21,2.21,0,0,0,.78.12A1.88,1.88,0,0,0,12.24,30a1.25,1.25,0,0,0,.45-1.08v-1.4H12.6a1.82,1.82,0,0,1-.42.6,2,2,0,0,1-.71.47,2.73,2.73,0,0,1-1,.18,3.19,3.19,0,0,1-1.57-.4,2.86,2.86,0,0,1-1.12-1.23A4.76,4.76,0,0,1,7.33,25a5,5,0,0,1,.42-2.17,3,3,0,0,1,1.13-1.3,2.84,2.84,0,0,1,1.54-.43,2.26,2.26,0,0,1,1.07.22,2.12,2.12,0,0,1,.7.53,2.92,2.92,0,0,1,.41.63h.08V21.19h2.11V28.9a2.6,2.6,0,0,1-.48,1.6,2.93,2.93,0,0,1-1.32,1A5.29,5.29,0,0,1,11.05,31.8Zm0-4.67a1.42,1.42,0,0,0,.86-.26,1.62,1.62,0,0,0,.55-.74A3,3,0,0,0,12.7,25a3.13,3.13,0,0,0-.19-1.16,1.7,1.7,0,0,0-.54-.77,1.41,1.41,0,0,0-.87-.28,1.35,1.35,0,0,0-.88.29,1.72,1.72,0,0,0-.55.77A3.43,3.43,0,0,0,9.49,25a3,3,0,0,0,.19,1.14,1.54,1.54,0,0,0,.54.74A1.42,1.42,0,0,0,11.1,27.13Z"/><path class="cls-1" d="M19.26,29a4,4,0,0,1-2-.48,3.24,3.24,0,0,1-1.31-1.36,5,5,0,0,1,0-4.16,3.44,3.44,0,0,1,1.29-1.38,3.69,3.69,0,0,1,2-.5,4.09,4.09,0,0,1,1.41.24,3.08,3.08,0,0,1,1.14.72,3.49,3.49,0,0,1,.77,1.21A5,5,0,0,1,22.76,25v.58H16.31V24.24h4.46a1.62,1.62,0,0,0-.2-.81,1.55,1.55,0,0,0-.55-.56,1.68,1.68,0,0,0-.81-.2,1.62,1.62,0,0,0-.86.22,1.72,1.72,0,0,0-.58.59,1.65,1.65,0,0,0-.21.83v1.24a2.12,2.12,0,0,0,.21,1,1.49,1.49,0,0,0,.6.64,1.82,1.82,0,0,0,.92.22,1.93,1.93,0,0,0,.65-.1,1.32,1.32,0,0,0,.5-.29,1.49,1.49,0,0,0,.32-.49l2,.13a2.75,2.75,0,0,1-.61,1.23,3,3,0,0,1-1.19.81A4.31,4.31,0,0,1,19.26,29Z"/><path class="cls-1" d="M23.45,28.83V21.19H25.5v1.33h.08a2,2,0,0,1,.7-1.08,1.89,1.89,0,0,1,1.14-.36l.34,0,.32,0V23c-.1,0-.24-.05-.41-.08l-.48,0a1.8,1.8,0,0,0-.84.2,1.46,1.46,0,0,0-.57.56,1.59,1.59,0,0,0-.21.82v4.33Z"/><rect width="39.55" height="39.55"/><path class="cls-1" d="M9,32.69V21h3.09v2.06h.13a3.27,3.27,0,0,1,1.22-1.62,3.45,3.45,0,0,1,2-.59,3.48,3.48,0,0,1,2,.59,2.83,2.83,0,0,1,1.12,1.62h.13a3.09,3.09,0,0,1,1.29-1.61,4.05,4.05,0,0,1,2.22-.6,3.57,3.57,0,0,1,2.66,1,4,4,0,0,1,1,2.94v7.85H22.77V25.48A1.92,1.92,0,0,0,22.26,24a1.86,1.86,0,0,0-1.3-.49,1.75,1.75,0,0,0-1.37.56,2.15,2.15,0,0,0-.5,1.47v7.13H16V25.41A1.93,1.93,0,0,0,15.47,24a1.72,1.72,0,0,0-1.29-.51,1.79,1.79,0,0,0-1,.27,1.86,1.86,0,0,0-.68.76,2.34,2.34,0,0,0-.25,1.12v7Z"/><path class="cls-1" d="M33.57,21v2.43h-7.2V21ZM28,32.69V20.18a4,4,0,0,1,.5-2.11,3.1,3.1,0,0,1,1.36-1.25,4.45,4.45,0,0,1,2-.42,8.14,8.14,0,0,1,1.36.11c.41.08.72.15.92.21l-.57,2.43a3.66,3.66,0,0,0-.47-.11,2.69,2.69,0,0,0-.57-.06,1.25,1.25,0,0,0-1,.33,1.38,1.38,0,0,0-.28.93V32.69Z"/></g></g></svg>